<svg xmlns="http://www.w3.org/2000/svg" xmlns:xlink="http://www.w3.org/1999/xlink" width="400" height="400" viewBox="0 0 400 400">
<rect data-name="background" width="100%" height="100%" fill="none"/><g data-name="icon" fill="#f9bf3e" data="id:1348455" transform="translate(-0.8722674108549899,133.94850244304763) scale(1.3210299511390475)">
    <path d="M84.06,50.003C87.751,45.762,90,40.231,90,34.167C90,20.82,79.18,10,65.833,10C59.769,10,54.241,12.249,50,15.938  C45.755,12.249,40.231,10,34.167,10C20.82,10,10,20.82,10,34.167c0,6.064,2.249,11.592,5.938,15.833  C12.249,54.241,10,59.769,10,65.833C10,79.18,20.82,90,34.167,90c6.064,0,11.588-2.249,15.833-5.938  C54.241,87.751,59.769,90,65.833,90C79.18,90,90,79.18,90,65.833c0-6.064-2.249-11.592-5.938-15.833L84.06,50.003z M83.333,34.167  c0,9.648-7.852,17.5-17.5,17.5c-4.388,0-8.355-1.68-11.429-4.362c2.468-3.782,3.929-8.281,3.929-13.138  c0-4.857-1.445-9.369-3.909-13.154c3.069-2.673,7.031-4.346,11.409-4.346C75.481,16.667,83.333,24.519,83.333,34.167z   M34.167,16.667c9.648,0,17.5,7.852,17.5,17.5c0,4.388-1.68,8.355-4.355,11.432c-3.786-2.471-8.288-3.932-13.145-3.932  c-4.857,0-9.369,1.445-13.158,3.912c-2.669-3.072-4.342-7.034-4.342-11.412C16.667,24.519,24.519,16.667,34.167,16.667z   M16.667,65.833c0-9.648,7.852-17.5,17.5-17.5c4.388,0,8.355,1.68,11.432,4.359c-2.471,3.785-3.932,8.284-3.932,13.141  c0,4.857,1.445,9.369,3.912,13.154c-3.072,2.673-7.031,4.346-11.412,4.346C24.519,83.333,16.667,75.481,16.667,65.833z   M65.833,83.333c-9.648,0-17.5-7.852-17.5-17.5c0-4.388,1.68-8.355,4.355-11.432c3.786,2.471,8.288,3.932,13.145,3.932  c4.857,0,9.369-1.445,13.158-3.912c2.669,3.072,4.342,7.034,4.342,11.412C83.333,75.481,75.481,83.333,65.833,83.333z"/>
    </g><g data-name="business_name" fill="#272727" data="id:304" transform="translate(141.4096521778958,163.79681961662735) scale(0.9821805761577761)"><path d="M12.36,48.32q-3.2,0-6.12-0.98t-4.6-2.54l1.48-3.12q1.6,1.4,4.08,2.32t5.16,0.92q2.44,0,3.96-0.56t2.24-1.54t0.72-2.22q0-1.44-0.94-2.32t-2.44-1.42t-3.3-0.94t-3.62-0.94t-3.32-1.38t-2.42-2.26t-0.92-3.66q0-2.16,1.14-3.98t3.52-2.92t6.06-1.1q2.44,0,4.84,0.64t4.16,1.84l-1.32,3.2q-1.8-1.2-3.8-1.74t-3.88-0.54q-2.36,0-3.88,0.6t-2.22,1.6t-0.7,2.24q0,1.48,0.94,2.36t2.44,1.4t3.3,0.94t3.62,0.94t3.32,1.36t2.42,2.24t0.92,3.6q0,2.12-1.16,3.94t-3.58,2.92t-6.1,1.1z M39.72,48.24q-2.64,0-4.82-1.22t-3.48-3.62t-1.3-6t1.26-6t3.44-3.6t4.9-1.2q3.12,0,5.52,1.36t3.8,3.78t1.4,5.66t-1.4,5.68t-3.8,3.8t-5.52,1.36z M28.48,55.76l0-28.96l3.68,0l0,5.72l-0.24,4.92l0.4,4.92l0,13.4l-3.84,0z M39.4,44.88q2.04,0,3.66-0.92t2.56-2.62t0.94-3.94q0-2.28-0.94-3.94t-2.56-2.58t-3.66-0.92q-2,0-3.62,0.92t-2.56,2.58t-0.94,3.94q0,2.24,0.94,3.94t2.56,2.62t3.62,0.92z M55.76,48l0-21.2l3.68,0l0,5.76l-0.36-1.44q0.88-2.2,2.96-3.36t5.12-1.16l0,3.72q-0.24-0.04-0.46-0.04l-0.42,0q-3.08,0-4.88,1.84t-1.8,5.32l0,10.56l-3.84,0z M72.16,48l0-21.2l3.84,0l0,21.2l-3.84,0z M74.08,22.72q-1.12,0-1.86-0.72t-0.74-1.76q0-1.08,0.74-1.8t1.86-0.72t1.86,0.7t0.74,1.74q0,1.08-0.72,1.82t-1.88,0.74z M94.64,26.6q2.6,0,4.58,1t3.1,3.04t1.12,5.16l0,12.2l-3.84,0l0-11.76q0-3.08-1.5-4.64t-4.22-1.56q-2.04,0-3.56,0.8t-2.34,2.36t-0.82,3.88l0,10.92l-3.84,0l0-21.2l3.68,0l0,5.72l-0.6-1.52q1.04-2.08,3.2-3.24t5.04-1.16z M119.84,56q-2.92,0-5.66-0.82t-4.46-2.34l1.84-2.96q1.48,1.28,3.64,2.02t4.52,0.74q3.76,0,5.52-1.76t1.76-5.36l0-4.48l0.4-4.2l-0.2-4.24l0-5.8l3.64,0l0,18.32q0,5.6-2.8,8.24t-8.2,2.64z M119.36,47.12q-3.08,0-5.5-1.3t-3.84-3.62t-1.42-5.36q0-3.08,1.42-5.38t3.84-3.58t5.5-1.28q2.72,0,4.96,1.1t3.58,3.38t1.34,5.76q0,3.44-1.34,5.72t-3.58,3.42t-4.96,1.14z M119.8,43.76q2.12,0,3.76-0.88t2.58-2.44t0.94-3.6t-0.94-3.6t-2.58-2.42t-3.76-0.86t-3.78,0.86t-2.6,2.42t-0.94,3.6t0.94,3.6t2.6,2.44t3.78,0.88z M139.08,56q-1.52,0-2.96-0.5t-2.48-1.46l1.64-2.88q0.8,0.76,1.76,1.16t2.04,0.4q1.4,0,2.32-0.72t1.72-2.56l1.32-2.92l0.4-0.48l8.32-19.24l3.76,0l-10.28,23.32q-0.92,2.24-2.06,3.52t-2.5,1.82t-3,0.54z M144.12,48.68l-9.68-21.88l4,0l8.24,18.88z M161.08,48l0-28l4,0l0,24.52l15.16,0l0,3.48l-19.16,0z M197.44,48l0-4.48l-0.2-0.84l0-7.64q0-2.44-1.42-3.78t-4.26-1.34q-1.88,0-3.68,0.62t-3.04,1.66l-1.6-2.88q1.64-1.32,3.94-2.02t4.82-0.7q4.36,0,6.72,2.12t2.36,6.48l0,12.8l-3.64,0z M190.48,48.24q-2.36,0-4.14-0.8t-2.74-2.22t-0.96-3.22q0-1.72,0.82-3.12t2.68-2.24t5.02-0.84l6.72,0l0,2.76l-6.56,0q-2.88,0-3.88,0.96t-1,2.32q0,1.56,1.24,2.5t3.44,0.94q2.16,0,3.78-0.96t2.34-2.8l0.76,2.64q-0.76,1.88-2.68,2.98t-4.84,1.1z M219.44,48.24q-2.72,0-4.9-1.22t-3.44-3.62t-1.26-6t1.3-6t3.48-3.6t4.82-1.2q3.12,0,5.52,1.36t3.8,3.78t1.4,5.66t-1.4,5.68t-3.8,3.8t-5.52,1.36z M208.2,48l0-29.68l3.84,0l0,14.12l-0.4,4.92l0.24,4.92l0,5.72l-3.68,0z M219.12,44.88q2.04,0,3.66-0.92t2.56-2.62t0.94-3.94q0-2.28-0.94-3.94t-2.56-2.58t-3.66-0.92q-2,0-3.62,0.92t-2.56,2.58t-0.94,3.94q0,2.24,0.94,3.94t2.56,2.62t3.62,0.92z M241.56,48.24q-2.64,0-5.02-0.72t-3.74-1.76l1.6-3.04q1.36,0.92,3.36,1.56t4.08,0.64q2.68,0,3.86-0.76t1.18-2.12q0-1-0.72-1.56t-1.9-0.84t-2.62-0.5t-2.88-0.56t-2.64-0.96t-1.92-1.72t-0.72-2.94q0-1.92,1.08-3.36t3.06-2.22t4.7-0.78q2.08,0,4.22,0.5t3.5,1.42l-1.64,3.04q-1.44-0.96-3-1.32t-3.12-0.36q-2.52,0-3.76,0.82t-1.24,2.1q0,1.08,0.74,1.66t1.92,0.9t2.62,0.54t2.88,0.56t2.62,0.94t1.92,1.68t0.74,2.88q0,1.92-1.12,3.32t-3.16,2.18t-4.88,0.78z"/></g></svg>